<?xml version="1.0" encoding="UTF-8"?>
<svg id="Layer_2" data-name="Layer 2" xmlns="http://www.w3.org/2000/svg" viewBox="0 0 384 384">
  <defs>
    <style>
      .cls-1 {
        fill: #fff;
      }
    </style>
  </defs>
  <g id="Layer_1-2" data-name="Layer 1">
    <g>
      <path class="cls-1" d="m0,171.75v-21c1.96,2.36,4,4.55,7.53,3.17,3.46-1.35,3.73-4.24,3.71-7.4-.06-10.12-.02-20.25-.02-30.37,0-3.08,0-6.16,0-9.26h360.8c0,1.41,0,2.53,0,3.65,0,61,0,122,0,183,0,12.26-7.01,19.35-19.21,19.39-14.72.05-29.44,0-44.16.02-1.49,0-3.03-.07-4.46.25-2.94.65-4.55,2.7-4.39,5.67.16,2.94,1.85,4.83,4.91,5.22.62.08,1.24.09,1.87.09,15.84,0,31.69.02,47.53-.03,2.11,0,4.26-.16,6.31-.62,14.06-3.11,22.83-14.54,22.84-29.74.01-76.12,0-152.25,0-228.37,0-2.12.04-4.25-.04-6.37-.54-15.02-12.68-27.19-27.68-27.61-6.36-.18-12.72-.08-19.09-.06-4.76.01-7.22,2-7.14,5.68.07,3.52,2.51,5.5,7.01,5.54,5.74.05,11.48-.02,17.22.02,11.21.09,18.44,7.36,18.48,18.59.04,10.25.02,20.5,0,30.75,0,1.07-.13,2.15-.2,3.18H11.34c0-12.54-.2-24.89.1-37.22.11-4.64,2.71-8.5,6.36-11.48,3.9-3.19,8.44-3.87,13.33-3.86,91.32.05,182.64.04,273.96.03,1.62,0,3.28.09,4.84-.26,3.09-.69,4.75-2.8,4.42-5.99-.31-2.98-2.15-4.7-5.18-4.93-1.37-.1-2.74-.05-4.11-.05-80.22,0-160.43,0-240.65,0-12.1,0-24.2-.12-36.3.07-12.79.2-23.48,8.64-27.03,20.96C.76,53.44.36,54.46,0,55.5,0,37,0,18.5,0,0h384v384H0v-84c4.94,18.36,17.71,24.75,35.55,24.37,30.92-.66,61.87-.15,92.81-.24,2.78,0,4.21.68,5.11,3.48,1.83,5.7,4.09,11.25,6.2,16.85,3.32,8.82,9.86,10.19,16.56,3.48,5.71-5.71,11.39-11.44,17.17-17.25,1.01.93,1.76,1.58,2.45,2.28,5.48,5.47,10.89,11.01,16.43,16.42,4.26,4.16,9.31,4.54,13.38.79,4.4-4.06,8.63-8.32,12.69-12.73,2.79-3.03,3.12-6.69,1.22-10.44-.42-.83-.82-1.67-1.37-2.82,19.28,0,38.11,0,56.94,0,1.37,0,2.76.06,4.11-.14,2.84-.42,4.44-2.19,4.63-5.04.19-2.84-1.11-4.88-3.88-5.65-1.41-.39-2.95-.4-4.44-.4-21.96-.02-43.91,0-65.87-.06-1.51,0-3.3-.27-4.48-1.09-2.41-1.68-4.5-3.83-6.98-6.02,6.69-6.68,12.73-12.61,18.67-18.65,5.42-5.51,4.02-12.47-3.2-15.18-32.53-12.2-65.1-24.33-97.7-36.34-1.95-.72-4.5-.78-6.51-.21-5.52,1.57-7.7,6.99-5.47,13.04,7.34,19.89,14.75,39.76,22.13,59.64.54,1.46,1.02,2.94,1.68,4.86h-3.91c-31.06,0-62.12.02-93.18,0-12.65-.01-19.51-7.02-19.51-19.84,0-38.62,0-77.24,0-115.86,0-1.25.36-2.69-.14-3.71-.82-1.69-1.92-3.9-3.41-4.42-1.66-.57-3.92.39-5.85.94-.71.2-1.22,1.12-1.83,1.7Zm87.88,16.09c.67,1.82,1.08,2.86,1.44,3.91,3.88,11.32,7.77,22.64,11.61,33.98.93,2.74,2.48,4.6,5.57,4.64,3.11.04,4.74-1.84,5.68-4.54,6.08-17.42,12.17-34.84,18.21-52.28,1.25-3.61,0-6.66-2.97-7.77-3.23-1.21-6.19.32-7.57,4.09-1.63,4.45-3.11,8.95-4.68,13.42-2.74,7.81-5.51,15.61-8.49,24.05-.62-1.63-.99-2.54-1.31-3.47-3.84-11.2-7.71-22.4-11.47-33.63-1-3-2.49-5.23-5.94-5.2-3.26.04-4.71,2.17-5.7,5.02-3.9,11.18-7.91,22.33-11.89,33.48-.38,1.06-.82,2.09-1.58,4.01-1.46-4.23-2.57-7.4-3.66-10.57-3.03-8.85-6.03-17.7-9.1-26.54-1.45-4.17-4.19-5.79-7.6-4.65-3.22,1.08-4.31,4.18-2.95,8.41.31.95.62,1.9.94,2.84,5.53,16.16,11.04,32.33,16.62,48.47,1.69,4.89,6.38,6.55,9.49,3.33,1.07-1.11,1.7-2.73,2.24-4.23,4.31-11.96,8.54-23.94,13.11-36.79Zm84.88,19.82c-.7-1.95-1.09-2.99-1.45-4.03-3.76-10.96-7.41-21.97-11.4-32.85-.72-1.96-2.59-4.04-4.46-4.87-1.34-.59-4.5.3-5.16,1.48-1.06,1.89-1.5,4.82-.83,6.86,5.57,16.93,11.48,33.74,17.23,50.62.99,2.9,2.2,5.37,5.71,5.5,3.73.14,5.12-2.41,6.17-5.42,3.84-10.94,7.74-21.85,11.63-32.77.43-1.2.95-2.36,1.64-4.04.55,1.37.86,2.05,1.1,2.75,3.98,11.68,7.97,23.36,11.92,35.05.88,2.61,2.42,4.34,5.32,4.44,3.08.11,4.82-1.61,5.78-4.36.74-2.12,1.47-4.24,2.21-6.36,5.39-15.41,10.81-30.82,16.14-46.25,1.24-3.59-.15-6.62-3.2-7.66-3.15-1.07-5.91.4-7.32,3.95-.55,1.39-1.01,2.82-1.5,4.23-3.81,10.87-7.63,21.75-11.78,33.61-1.5-4.32-2.7-7.69-3.85-11.07-3.09-9.08-6.16-18.18-9.26-27.26-.9-2.64-2.82-4.62-5.52-4-1.98.46-3.7,2.36-5.32,3.85-.64.6-.69,1.83-1.02,2.77-4.14,11.6-8.28,23.2-12.79,35.83Zm102.19.06c-.81-2.23-1.28-3.49-1.72-4.77-3.73-10.85-7.35-21.74-11.29-32.5-.68-1.85-2.51-3.86-4.28-4.54-1.42-.54-4.41.29-5.19,1.5-1.09,1.69-1.55,4.55-.93,6.46,5.6,17.06,11.51,34.01,17.3,51.01,1.03,3.02,2.37,5.58,6.11,5.5,3.53-.07,4.79-2.54,5.8-5.41,3.93-11.17,7.92-22.32,11.91-33.48.33-.93.76-1.83,1.41-3.4.73,2.04,1.2,3.3,1.63,4.58,3.78,11.09,7.54,22.19,11.33,33.28.87,2.55,2.44,4.36,5.37,4.43,3.08.08,4.81-1.65,5.76-4.4.61-1.77,1.25-3.52,1.87-5.29,5.43-15.54,10.87-31.07,16.26-46.62,1.63-4.71-.36-8.44-4.51-8.61-3.45-.14-5.08,2.03-6.11,5-3.71,10.72-7.48,21.42-11.23,32.13-.48,1.37-1.01,2.72-1.82,4.88-4.38-12.88-8.49-24.88-12.53-36.9-1.02-3.05-2.4-5.58-6.09-5.52-3.49.06-4.8,2.48-5.82,5.38-4.24,12.11-8.58,24.2-13.23,37.28ZM121.96,68.97c0-5.69-4.79-10.46-10.48-10.41-5.53.05-10.19,4.67-10.31,10.22-.12,5.64,4.65,10.55,10.31,10.61,5.66.06,10.47-4.73,10.47-10.43Zm-32.07.04c.02-5.81-4.7-10.53-10.44-10.45-5.6.08-10.17,4.73-10.2,10.36-.03,5.75,4.8,10.57,10.49,10.47,5.58-.09,10.14-4.75,10.16-10.39Zm-42.19-10.45c-5.6-.06-10.27,4.48-10.39,10.12-.12,5.82,4.47,10.65,10.18,10.72,5.59.07,10.25-4.48,10.39-10.14.15-5.85-4.41-10.63-10.19-10.7Z"/>
      <path d="m0,55.5c.36-1.04.76-2.06,1.06-3.11,3.55-12.31,14.24-20.76,27.03-20.96,12.1-.19,24.2-.07,36.3-.07,80.22,0,160.43,0,240.65,0,1.37,0,2.75-.05,4.11.05,3.03.23,4.87,1.95,5.18,4.93.33,3.2-1.33,5.3-4.42,5.99-1.55.35-3.22.26-4.84.26-91.32.01-182.64.02-273.96-.03-4.89,0-9.43.68-13.33,3.86-3.65,2.98-6.24,6.84-6.36,11.48-.3,12.33-.1,24.68-.1,37.22h360.47c.07-1.03.2-2.11.2-3.18.02-10.25.04-20.5,0-30.75-.04-11.24-7.28-18.5-18.48-18.59-5.74-.05-11.48.03-17.22-.02-4.5-.04-6.94-2.02-7.01-5.54-.08-3.68,2.37-5.67,7.14-5.68,6.36-.02,12.73-.11,19.09.06,15,.42,27.14,12.59,27.68,27.61.08,2.12.04,4.25.04,6.37,0,76.12,0,152.25,0,228.37,0,15.2-8.78,26.63-22.84,29.74-2.05.45-4.2.61-6.31.62-15.84.05-31.69.03-47.53.03-.62,0-1.25,0-1.87-.09-3.06-.39-4.75-2.27-4.91-5.22-.16-2.98,1.46-5.02,4.39-5.67,1.44-.32,2.97-.25,4.46-.25,14.72-.02,29.44.02,44.16-.02,12.2-.04,19.2-7.13,19.21-19.39,0-61,0-122,0-183,0-1.12,0-2.24,0-3.65H11.23c0,3.1,0,6.18,0,9.26,0,10.12-.04,20.25.02,30.37.02,3.16-.26,6.05-3.71,7.4C4,155.3,1.96,153.11,0,150.75,0,119,0,87.25,0,55.5Z"/>
      <path d="m0,171.75c.6-.59,1.12-1.5,1.83-1.7,1.93-.55,4.19-1.51,5.85-.94,1.49.51,2.59,2.73,3.41,4.42.49,1.02.14,2.46.14,3.71,0,38.62,0,77.24,0,115.86,0,12.81,6.86,19.83,19.51,19.84,31.06.03,62.12,0,93.18,0h3.91c-.66-1.92-1.14-3.4-1.68-4.86-7.38-19.88-14.79-39.75-22.13-59.64-2.23-6.05-.05-11.47,5.47-13.04,2.01-.57,4.55-.51,6.51.21,32.6,12.02,65.17,24.14,97.7,36.34,7.23,2.71,8.62,9.66,3.2,15.18-5.94,6.04-11.98,11.98-18.67,18.65,2.48,2.18,4.57,4.33,6.98,6.02,1.18.83,2.97,1.09,4.48,1.09,21.95.07,43.91.04,65.87.06,1.48,0,3.03.01,4.44.4,2.76.76,4.07,2.81,3.88,5.65-.19,2.85-1.79,4.62-4.63,5.04-1.35.2-2.74.14-4.11.14-18.83,0-37.66,0-56.94,0,.56,1.14.95,1.99,1.37,2.82,1.9,3.76,1.56,7.41-1.22,10.44-4.05,4.41-8.29,8.67-12.69,12.73-4.07,3.75-9.11,3.37-13.38-.79-5.54-5.41-10.95-10.95-16.43-16.42-.7-.7-1.44-1.34-2.45-2.28-5.78,5.81-11.46,11.54-17.17,17.25-6.71,6.71-13.24,5.34-16.56-3.48-2.11-5.6-4.37-11.16-6.2-16.85-.9-2.81-2.32-3.49-5.11-3.48-30.94.1-61.88-.42-92.81.24C17.71,324.75,4.94,318.36,0,300,0,257.25,0,214.5,0,171.75Zm149.56,167.13c6.34-6.4,12.11-12.25,17.91-18.08,5.07-5.09,7.05-5.1,12.07-.07,6.59,6.6,13.17,13.22,19.19,19.27,3.29-3.15,6.33-6.05,9.39-8.98-.03-.04-.12-.29-.29-.46-6.42-6.46-12.85-12.91-19.27-19.37-4.6-4.62-4.59-6.92.03-11.55,5.97-5.97,11.95-11.93,18.28-18.25-30.53-11.39-60.52-22.58-91.32-34.07,11.45,30.84,22.58,60.81,34,91.56Z"/>
      <path d="m87.88,187.84c-4.57,12.85-8.8,24.83-13.11,36.79-.54,1.5-1.17,3.13-2.24,4.23-3.11,3.22-7.8,1.56-9.49-3.33-5.58-16.15-11.09-32.31-16.62-48.47-.32-.94-.64-1.89-.94-2.84-1.36-4.22-.27-7.33,2.95-8.41,3.42-1.14,6.15.47,7.6,4.65,3.07,8.83,6.07,17.69,9.1,26.54,1.09,3.17,2.2,6.34,3.66,10.57.76-1.92,1.2-2.96,1.58-4.01,3.98-11.16,7.99-22.3,11.89-33.48.99-2.84,2.44-4.98,5.7-5.02,3.45-.04,4.94,2.2,5.94,5.2,3.76,11.23,7.63,22.42,11.47,33.63.32.93.7,1.84,1.31,3.47,2.98-8.44,5.74-16.24,8.49-24.05,1.57-4.47,3.05-8.97,4.68-13.42,1.38-3.77,4.34-5.3,7.57-4.09,2.96,1.11,4.22,4.16,2.97,7.77-6.04,17.44-12.13,34.85-18.21,52.28-.94,2.69-2.57,4.58-5.68,4.54-3.09-.04-4.64-1.9-5.57-4.64-3.84-11.34-7.73-22.65-11.61-33.98-.36-1.05-.77-2.09-1.44-3.91Z"/>
      <path d="m172.76,207.65c4.51-12.63,8.65-24.23,12.79-35.83.34-.94.38-2.18,1.02-2.77,1.62-1.49,3.34-3.39,5.32-3.85,2.7-.63,4.62,1.35,5.52,4,3.09,9.08,6.16,18.18,9.26,27.26,1.15,3.38,2.34,6.74,3.85,11.07,4.16-11.86,7.97-22.74,11.78-33.61.49-1.41.95-2.84,1.5-4.23,1.41-3.55,4.17-5.02,7.32-3.95,3.05,1.04,4.44,4.07,3.2,7.66-5.33,15.43-10.75,30.84-16.14,46.25-.74,2.12-1.48,4.24-2.21,6.36-.95,2.75-2.69,4.47-5.78,4.36-2.9-.1-4.44-1.83-5.32-4.44-3.95-11.69-7.94-23.37-11.92-35.05-.24-.7-.55-1.39-1.1-2.75-.68,1.68-1.21,2.84-1.64,4.04-3.89,10.92-7.78,21.84-11.63,32.77-1.06,3.01-2.44,5.56-6.17,5.42-3.51-.13-4.73-2.6-5.71-5.5-5.74-16.87-11.65-33.69-17.23-50.62-.67-2.04-.22-4.97.83-6.86.66-1.18,3.83-2.07,5.16-1.48,1.87.82,3.74,2.9,4.46,4.87,3.99,10.88,7.63,21.89,11.4,32.85.36,1.05.75,2.08,1.45,4.03Z"/>
      <path d="m274.95,207.71c4.65-13.08,8.99-25.16,13.23-37.28,1.02-2.9,2.33-5.33,5.82-5.38,3.7-.06,5.07,2.47,6.09,5.52,4.04,12.02,8.15,24.02,12.53,36.9.81-2.16,1.34-3.52,1.82-4.88,3.75-10.71,7.52-21.41,11.23-32.13,1.03-2.98,2.66-5.14,6.11-5,4.15.17,6.14,3.9,4.51,8.61-5.38,15.55-10.83,31.08-16.26,46.62-.62,1.77-1.26,3.52-1.87,5.29-.95,2.75-2.67,4.48-5.76,4.4-2.93-.07-4.5-1.88-5.37-4.43-3.79-11.09-7.55-22.19-11.33-33.28-.43-1.28-.9-2.54-1.63-4.58-.65,1.57-1.08,2.47-1.41,3.4-3.98,11.15-7.98,22.3-11.91,33.48-1.01,2.88-2.27,5.34-5.8,5.41-3.74.08-5.08-2.48-6.11-5.5-5.79-17-11.7-33.95-17.3-51.01-.63-1.91-.16-4.77.93-6.46.78-1.2,3.77-2.04,5.19-1.5,1.77.67,3.6,2.69,4.28,4.54,3.95,10.77,7.56,21.66,11.29,32.5.44,1.27.91,2.53,1.72,4.77Z"/>
      <path d="m121.96,68.97c0,5.7-4.81,10.49-10.47,10.43-5.66-.06-10.43-4.97-10.31-10.61.12-5.55,4.78-10.17,10.31-10.22,5.68-.05,10.48,4.71,10.48,10.41Z"/>
      <path d="m89.89,69.01c-.02,5.63-4.57,10.29-10.16,10.39-5.69.1-10.51-4.72-10.49-10.47.03-5.64,4.59-10.28,10.2-10.36,5.75-.09,10.46,4.63,10.44,10.45Z"/>
      <path d="m47.7,58.56c5.78.07,10.34,4.85,10.19,10.7-.14,5.66-4.8,10.21-10.39,10.14-5.72-.07-10.3-4.9-10.18-10.72.12-5.63,4.79-10.18,10.39-10.12Z"/>
      <path class="cls-1" d="m149.56,338.88c-11.42-30.75-22.55-60.72-34-91.56,30.8,11.49,60.79,22.68,91.32,34.07-6.33,6.32-12.32,12.28-18.28,18.25-4.62,4.63-4.62,6.92-.03,11.55,6.42,6.46,12.85,12.91,19.27,19.37.17.17.26.42.29.46-3.07,2.93-6.1,5.83-9.39,8.98-6.02-6.05-12.6-12.66-19.19-19.27-5.02-5.03-7-5.03-12.07.07-5.8,5.83-11.57,11.68-17.91,18.08Z"/>
    </g>
  </g>
</svg>